<svg width="380" height="64" viewBox="0 0 380 64" fill="none" xmlns="http://www.w3.org/2000/svg">
          <path d="M31.7996 0C14.621 0 0.694336 14.2179 0.694336 31.7558C0.694336 49.2937 14.621 63.5116 31.7996 63.5116C48.9781 63.5116 62.9048 49.2969 62.9048 31.7558C62.9048 14.2147 48.9813 0 31.7996 0ZM23.9783 60.0959L19.9513 58.5995L39.6255 3.41568L43.6525 4.91214L23.9783 60.0959Z" fill="white"/>
          <path d="M85.5481 2.39453H98.0589C115.756 2.39453 125.292 13.7647 125.292 31.5212C125.292 58.6217 108.585 61.1137 99.1263 61.1137H85.5481V2.39453ZM101.109 46.9404C108.204 46.8622 109.424 37.8293 109.424 32.2997C109.424 25.9182 108.204 17.0352 101.109 17.0352V46.9404Z" fill="white"/>
          <path d="M149.53 1.38477C165.314 1.38477 171.5 17.4278 171.5 31.7574C171.5 46.087 165.321 62.13 149.53 62.13C133.74 62.13 127.562 46.087 127.562 31.7574C127.562 17.4278 133.741 1.38477 149.53 1.38477ZM149.53 47.3314C155.405 47.3314 155.625 35.4156 155.625 31.7558C155.625 28.096 155.397 16.1802 149.53 16.1802C143.664 16.1802 143.428 28.096 143.428 31.7558C143.428 35.4156 143.658 47.333 149.53 47.333V47.3314Z" fill="white"/>
          <path d="M180.653 61.1168V16.7273H172.11V2.39453H205.14V16.7241H196.216V61.1168H180.653Z" fill="white"/>
          <path d="M206.956 41.3356C209.092 44.6077 212.83 47.8766 216.801 47.8766C218.937 47.8766 221.378 46.5525 221.378 43.9823C221.41 42.7704 220.972 41.5947 220.158 40.7118C219.472 39.8551 218.556 39.1531 217.564 38.4528C214.513 36.039 211.843 33.7799 209.86 30.9769C207.952 28.252 206.734 24.9799 206.734 20.6963C206.734 13.8442 211.007 1.38281 224.28 1.38281C228.018 1.38281 232.061 2.55062 235.341 4.34222V22.1768C233.509 19.2174 229.771 15.8688 226.187 15.8688C224.357 15.8688 222.144 17.1929 222.144 19.4504C222.144 20.6963 222.83 21.7876 223.669 22.7225C224.508 23.6573 225.652 24.4343 226.491 25.1362C229.773 27.4719 232.366 29.6527 234.12 32.301C235.952 34.9494 236.943 38.0635 236.943 42.5018C236.943 53.4062 229.467 62.1249 218.636 62.1249C214.628 62.1062 210.663 61.2862 206.964 59.7111L206.956 41.3356Z" fill="white"/>
          <path d="M242.251 50.0578L251.954 2.39453L260.016 2.40729L249.878 50.0546C249.574 52.3136 249.803 54.4163 252.396 54.4163C253.846 54.4163 256.134 53.4814 258.347 51.8462L257.05 60.1788C254.227 61.3482 251.94 61.7374 250.108 61.7374C243.548 61.7422 241.035 58.1574 242.251 50.0578Z" fill="white"/>
          <path d="M289.707 61.1168L288.561 53.5628H278.112L276.814 61.1168H260.795L274.602 2.39453H293.596L305.802 61.1136L289.707 61.1168ZM286.738 41.1029L285.059 27.4737C284.601 23.8139 284.297 20.076 283.915 16.4162H283.759C283.301 20.076 282.92 23.8139 282.31 27.4737L280.174 41.1029H286.738Z" fill="white"/>
          <path d="M307.145 41.3356C309.281 44.6077 313.019 47.8766 316.989 47.8766C319.126 47.8766 321.567 46.5525 321.567 43.9823C321.599 42.7704 321.16 41.5947 320.346 40.7118C319.66 39.8551 318.744 39.1531 317.752 38.4528C314.702 36.039 312.031 33.7799 310.048 30.9769C308.14 28.252 306.923 24.9799 306.923 20.6963C306.923 13.8442 311.195 1.38281 324.468 1.38281C328.206 1.38281 332.249 2.55062 335.529 4.34222V22.1768C333.698 19.2174 329.96 15.8688 326.375 15.8688C324.545 15.8688 322.332 17.1929 322.332 19.4504C322.332 20.6963 323.018 21.7876 323.857 22.7225C324.697 23.6573 325.84 24.4343 326.68 25.1362C329.961 27.4719 332.554 29.6527 334.309 32.301C336.14 34.9494 337.131 38.0635 337.131 42.5018C337.131 53.4062 329.655 62.1249 318.824 62.1249C314.816 62.1062 310.851 61.2862 307.152 59.7111L307.145 41.3356Z" fill="white"/>
          <path d="M364.439 61.1168V37.2868H357.039V61.1168H341.478V2.39453H357.039V23.4215H364.439V2.39453H380V61.1168H364.439Z" fill="white"/>
          </svg>